<?xml version="1.0" encoding="UTF-8"?>
<!-- Created with EazyDraw for Mac ( http://www.eazydraw.com/ ) -->

<svg
    version="1.1"
    xmlns:dc="http://purl.org/dc/elements/1.1/"
    xmlns:cc="http://creativecommons.org/ns#"
    xmlns:rdf="http://www.w3.org/1999/02/22-rdf-syntax-ns#"
    xmlns:svg="http://www.w3.org/2000/svg"
    xmlns:xlink="http://www.w3.org/1999/xlink"
    xmlns="http://www.w3.org/2000/svg"
    width="759.674804688"
    height="661.693081178"
    viewBox="0, 0, 759.674804688, 661.693081178"
    preserveAspectRatio="none"
    id="svg2">
   <defs
       id="defs_A68B4EBF"/>
   <metadata
       id="metadata7">
      <rdf:RDF>
         <cc:Work
             rdf:about="">
            <dc:format>image/svg+xml</dc:format>
            <dc:type rdf:resource="http://purl.org/dc/dcmitype/StillImage"/>
            <dc:title></dc:title>
         </cc:Work>
      </rdf:RDF>
   </metadata>
   <g
       id="layer_Paper"
       style="fill:#000000;fill-opacity:1;stroke:#000000;stroke-opacity:1;fill-rule:nonzero;stroke-linecap:square;stroke-linejoin:miter;stroke-width:1;stroke-miterlimit:10">
      <polyline
          style="fill:#238CC1;stroke:none"
          id="44F6758F"
          points="7.330966666667,661.135416667 7.330966666667,197.657116667 70.0737666667,197.657116667 70.0737666667,661.135416667 7.330966666667,661.135416667 77.0456666667,661.135416667 77.0456666667,383.048416667 139.787666667,383.048416667 139.787666667,661.135416667 77.0456666667,661.135416667 146.759666667,661.135416667 146.759666667,475.744416667 209.502666667,475.744416667 209.502666667,661.135416667 146.759666667,661.135416667 216.473666667,661.135416667 216.473666667,522.092416667 279.216666667,522.092416667 279.216666667,661.135416667 216.473666667,661.135416667 286.187666667,661.135416667 286.187666667,545.265416667 348.930666667,545.265416667 348.930666667,661.135416667 286.187666667,661.135416667 355.902666667,661.135416667 355.902666667,568.439416667 418.645666667,568.439416667 418.645666667,661.135416667 355.902666667,661.135416667 425.616666667,661.135416667 425.616666667,591.613416667 488.359666667,591.613416667 488.359666667,661.135416667 425.616666667,661.135416667 495.330666667,661.135416667 495.330666667,614.787416667 558.073666667,614.787416667 558.073666667,661.135416667 495.330666667,661.135416667 565.045666667,661.135416667 565.045666667,637.961416667 627.787666667,637.961416667 627.787666667,661.135416667 565.045666667,661.135416667 634.759666667,661.135416667 634.759666667,642.596416667 697.502666667,642.596416667 697.502666667,661.135416667 634.759666667,661.135416667 634.759666667,661.135416667"/>
      <rect
          style="fill:#009CFF"
          id="6FE98A8F"
          x="397.546875"
          y="316.200520833"
          width="147.2421875"
          height="156.2109375"/>
      <rect
          style="fill:#009CFF"
          id="121F1B8F"
          x="558.071875"
          y="378.307552083"
          width="147.2421875"
          height="93.19921875"/>
      <circle
          style="fill:none;stroke-width:5"
          id="1F6D4E8F"
          cx="559.439453125"
          cy="395.575520833"
          r="197.735351562"/>
      <line
          style="fill:none;stroke-width:5"
          id="D725BF8F"
          x1="754.48046875"
          y1="425.489583333"
          x2="700.984375"
          y2="658.497395833"/>
      <line
          style="fill:none;stroke-width:5"
          id="0018509F"
          x1="458.98203125"
          y1="566.823177083"
          x2="561.09921875"
          y2="658.163020833"/>
      <text
          id="955736BF"
          style="fill:#003CFF;stroke:none"
          font-family="Arial Black"
          font-size="144"
          font-weight="bold"
          font-style="normal">
         <tspan x="5" y="158">Raritas</tspan>
      </text>
      <rect
          style="fill:#FFFFFF;stroke:#FFFFFF"
          id="23001ABF"
          x="559.265625"
          y="628.880208333"
          width="140.890625"
          height="32.2916666667"/>
   </g>
</svg>
